<?xml version="1.0" encoding="iso-8859-1"?>
<!-- Generator: Adobe Illustrator 19.0.0, SVG Export Plug-In . SVG Version: 6.00 Build 0)  -->
<svg version="1.1" id="Layer_1" xmlns="http://www.w3.org/2000/svg" xmlns:xlink="http://www.w3.org/1999/xlink" x="0px" y="0px"
	 viewBox="0 0 792 612" style="enable-background:new 0 0 792 612;" xml:space="preserve">
<g>
	<polygon style="fill:#FFFFFF;" points="143.115,153.199 610.018,153.199 380.64,552.57 	"/>
	<polygon style="fill:none;stroke:#FFFFFF;stroke-width:10.9524;" points="143.115,153.199 610.018,153.199 380.64,552.57 	"/>
	<path style="fill:#FFFFFF;" d="M471.459,165.425c-5.82-14.554-26.779-4.075-17.465,8.732c12.227,11.062,32.02,39.588,34.93,44.827
		l15.719-16.3c0,0-5.82-5.241-2.91-20.377l-27.363-4.658C474.369,177.649,469.713,177.068,471.459,165.425z"/>
	<path style="fill:none;stroke:#FFFFFF;stroke-width:10.9524;" d="M471.459,165.425c-5.82-14.554-26.779-4.075-17.465,8.732
		c12.227,11.062,32.02,39.588,34.93,44.827l15.719-16.3c0,0-5.82-5.241-2.91-20.377l-27.363-4.658
		C474.369,177.649,469.713,177.068,471.459,165.425z"/>
	<rect x="413.242" y="434.097" style="fill:#FFFFFF;" width="7.859" height="4.367"/>
	<rect x="413.242" y="434.097" style="fill:none;stroke:#FFFFFF;stroke-width:10.9524;" width="7.859" height="4.367"/>
	<rect x="436.82" y="434.389" style="fill:#FFFFFF;" width="7.859" height="4.366"/>
	<rect x="436.82" y="434.389" style="fill:none;stroke:#FFFFFF;stroke-width:10.9524;" width="7.859" height="4.366"/>
	<rect x="457.779" y="434.389" style="fill:#FFFFFF;" width="7.859" height="4.366"/>
	<rect x="457.779" y="434.389" style="fill:none;stroke:#FFFFFF;stroke-width:10.9524;" width="7.859" height="4.366"/>
	<polygon style="fill:#FFFFFF;" points="186.583,419.057 202.109,419.057 188.137,448.553 169.506,448.553 	"/>
	<polygon style="fill:none;stroke:#FFFFFF;stroke-width:10.9524;" points="186.583,419.057 202.109,419.057 188.137,448.553 
		169.506,448.553 	"/>
	<polygon style="fill:#FFFFFF;" points="294.086,418.744 280.741,448.769 301.676,449.106 344.912,400.592 334.68,390.69 
		307.675,419.057 	"/>
	<polygon style="fill:none;stroke:#FFFFFF;stroke-width:10.9524;" points="294.086,418.744 280.741,448.769 301.676,449.106 
		344.912,400.592 334.68,390.69 307.675,419.057 	"/>
	<polygon style="fill:#FFFFFF;" points="506.779,208.312 384.911,340.27 391.12,345.704 512.99,214.522 511.438,208.312 	"/>
	<polygon style="fill:none;stroke:#FFFFFF;stroke-width:10.9524;" points="506.779,208.312 384.911,340.27 391.12,345.704 
		512.99,214.522 511.438,208.312 	"/>
	<polygon style="fill:#FFFFFF;" points="557.234,154.751 557.234,159.408 564.221,158.632 570.43,152.422 568.1,146.988 
		563.443,146.988 	"/>
	<polygon style="fill:none;stroke:#FFFFFF;stroke-width:10.9524;" points="557.234,154.751 557.234,159.408 564.221,158.632 
		570.43,152.422 568.1,146.988 563.443,146.988 	"/>
	<path style="fill:#FFFFFF;" d="M470.295,239.359c0,0-35.512,37.26-75.682,81.505C228.694,255.078,328.247,60.633,470.295,239.359z"
		/>
	<path style="fill:none;stroke:#FFFFFF;stroke-width:10.9524;" d="M470.295,239.359c0,0-35.512,37.26-75.682,81.505
		C228.694,255.078,328.247,60.633,470.295,239.359z"/>
	<path style="fill:#FFFFFF;" d="M481.648,256.826c20.666,34.349,67.822,131.279-66.66,73.645
		C414.988,330.471,474.369,263.812,481.648,256.826z"/>
	<path style="fill:none;stroke:#FFFFFF;stroke-width:10.9524;" d="M481.648,256.826c20.666,34.349,67.822,131.279-66.66,73.645
		C414.988,330.471,474.369,263.812,481.648,256.826z"/>
	<path style="fill:#FFFFFF;" d="M238.59,145.048c0,0,19.212,19.795,18.947,28.587c0.142,0.597,0.891,4.037,0.543,4.436
		c-8.15,9.313-34.098,22.389-34.098,22.389l21.012-42.02l-46.072,46.744c0,0-4.576-18.023,14.791-35.741L238.59,145.048z"/>
	<path style="fill:none;stroke:#FFFFFF;stroke-width:10.9524;" d="M238.59,145.048c0,0,19.212,19.795,18.947,28.587
		c0.142,0.597,0.891,4.037,0.543,4.436c-8.15,9.313-34.098,22.389-34.098,22.389l21.012-42.02l-46.072,46.744
		c0,0-4.576-18.023,14.791-35.741L238.59,145.048z"/>
	<path style="fill:#FFFFFF;" d="M262.501,111.874l-3.533,21.822c0,0,19.793-4.076,7.858,12.518l2.619,2.619
		c0,0,14.439-13.669-6.702-20.275l0.782-7.979l5.734-6.144L262.501,111.874z"/>
	<path style="fill:none;stroke:#FFFFFF;stroke-width:10.9524;" d="M262.501,111.874l-3.533,21.822c0,0,19.793-4.076,7.858,12.518
		l2.619,2.619c0,0,14.439-13.669-6.702-20.275l0.782-7.979l5.734-6.144L262.501,111.874z"/>
	<polygon style="fill:#FFFFFF;" points="545.979,159.022 545.979,171.828 529.676,189.295 522.109,188.13 523.855,181.726 	"/>
	<polygon style="fill:none;stroke:#FFFFFF;stroke-width:10.9524;" points="545.979,159.022 545.979,171.828 529.676,189.295 
		522.109,188.13 523.855,181.726 	"/>
	<path style="fill:#FFFFFF;" d="M509.883,175.904c-2.328,4.656-0.582,8.731-0.582,8.731l6.404,0.584l28.527-30.857
		c0,0-1.166-10.479-10.48-8.148C533.752,146.214,513.375,159.022,509.883,175.904z"/>
	<path style="fill:none;stroke:#FFFFFF;stroke-width:10.9524;" d="M509.883,175.904c-2.328,4.656-0.582,8.731-0.582,8.731
		l6.404,0.584l28.527-30.857c0,0-1.166-10.479-10.48-8.148C533.752,146.214,513.375,159.022,509.883,175.904z"/>
	<path style="fill:#FFFFFF;" d="M523.273,203.849l11.061,16.883l8.15,0.581l0.582-6.985c0,0-3.492-14.408-8.295-17.757
		c-0.582-0.582-10.334-9.022-13.246,6.696"/>
	<path style="fill:none;stroke:#FFFFFF;stroke-width:10.9524;" d="M523.273,203.849l11.061,16.883l8.15,0.581l0.582-6.985
		c0,0-3.492-14.408-8.295-17.757c-0.582-0.582-10.334-9.022-13.246,6.696"/>
	<polygon style="fill:#FFFFFF;" points="485.932,140.108 507.141,155.98 512.129,156.386 511.715,153.13 493.416,136.446 
		486.348,135.634 	"/>
	<polygon style="fill:none;stroke:#FFFFFF;stroke-width:10.9524;" points="485.932,140.108 507.141,155.98 512.129,156.386 
		511.715,153.13 493.416,136.446 486.348,135.634 	"/>
	<polygon style="fill:#FFFFFF;" points="485.1,143.771 507.141,159.641 507.141,163.709 500.902,163.709 479.693,150.281 
		476.783,143.771 	"/>
	<polygon style="fill:none;stroke:#FFFFFF;stroke-width:10.9524;" points="485.1,143.771 507.141,159.641 507.141,163.709 
		500.902,163.709 479.693,150.281 476.783,143.771 	"/>
	<polygon style="fill:#FFFFFF;" points="473.457,161.676 498.408,171.441 501.734,171.033 500.07,166.966 477.615,153.943 
		472.625,153.943 	"/>
	<polygon style="fill:none;stroke:#FFFFFF;stroke-width:10.9524;" points="473.457,161.676 498.408,171.441 501.734,171.033 
		500.07,166.966 477.615,153.943 472.625,153.943 	"/>
	<polygon style="fill:#FFFFFF;" points="474.178,166.783 479.225,167.559 499.018,175.321 499.018,178.815 473.4,174.934 	"/>
	<polygon style="fill:none;stroke:#FFFFFF;stroke-width:10.9524;" points="474.178,166.783 479.225,167.559 499.018,175.321 
		499.018,178.815 473.4,174.934 	"/>
	<polygon style="fill:#FFFFFF;" points="493.416,133.191 515.041,150.69 519.613,151.096 519.199,145.4 500.902,128.717 
		493.002,127.495 	"/>
	<polygon style="fill:none;stroke:#FFFFFF;stroke-width:10.9524;" points="493.416,133.191 515.041,150.69 519.613,151.096 
		519.199,145.4 500.902,128.717 493.002,127.495 	"/>
	<polygon style="fill:#FFFFFF;" points="504.23,126.274 520.445,143.364 523.773,144.585 525.019,139.296 512.547,122.614 
		504.23,120.985 	"/>
	<polygon style="fill:none;stroke:#FFFFFF;stroke-width:10.9524;" points="504.23,126.274 520.445,143.364 523.773,144.585 
		525.019,139.296 512.547,122.614 504.23,120.985 	"/>
	<polygon style="fill:#FFFFFF;" points="518.422,120.985 517.646,125.255 528.127,139.227 530.455,136.122 520.752,123.315 	"/>
	<polygon style="fill:none;stroke:#FFFFFF;stroke-width:10.9524;" points="518.422,120.985 517.646,125.255 528.127,139.227 
		530.455,136.122 520.752,123.315 	"/>
	<polygon style="fill:#FFFFFF;" points="586.148,271.769 590.293,263.144 615.326,274.206 612.152,282.367 619.764,285.961 
		623.357,277.717 633.08,281.523 630.199,290.204 636.217,290.204 643.228,286.385 643.861,277.083 574.312,249.391 
		571.775,254.462 581.5,259.112 579.357,268.469 	"/>
	<polygon style="fill:none;stroke:#FFFFFF;stroke-width:10.9524;" points="586.148,271.769 590.293,263.144 615.326,274.206 
		612.152,282.367 619.764,285.961 623.357,277.717 633.08,281.523 630.199,290.204 636.217,290.204 643.228,286.385 
		643.861,277.083 574.312,249.391 571.775,254.462 581.5,259.112 579.357,268.469 	"/>
	<polygon style="fill:#FFFFFF;" points="592.551,269.245 590.611,275.067 607.688,282.828 610.406,277.396 	"/>
	<polygon style="fill:none;stroke:#FFFFFF;stroke-width:10.9524;" points="592.551,269.245 590.611,275.067 607.688,282.828 
		610.406,277.396 	"/>
	<polygon style="fill:#FFFFFF;" points="624.377,283.606 623.213,287.876 626.705,289.815 628.26,284.77 	"/>
	<polygon style="fill:none;stroke:#FFFFFF;stroke-width:10.9524;" points="624.377,283.606 623.213,287.876 626.705,289.815 
		628.26,284.77 	"/>
	<polygon style="fill:#FFFFFF;" points="409.752,433.612 409.555,442.151 423.725,442.151 425.857,433.806 431.68,434.001 
		434.783,442.539 467.969,442.733 469.326,433.031 475.342,433.031 476.119,443.51 489.314,443.512 489.314,448.167 
		398.301,448.457 396.749,442.928 403.541,433.516 	"/>
	<polygon style="fill:none;stroke:#FFFFFF;stroke-width:10.9524;" points="409.752,433.612 409.555,442.151 423.725,442.151 
		425.857,433.806 431.68,434.001 434.783,442.539 467.969,442.733 469.326,433.031 475.342,433.031 476.119,443.51 489.314,443.512 
		489.314,448.167 398.301,448.457 396.749,442.928 403.541,433.516 	"/>
	<path style="fill:#FFFFFF;" d="M347.458,351.721c0,0,0,37.841,18.046,48.901l1.164-36.096
		C366.668,364.526,356.772,348.81,347.458,351.721z"/>
	<path style="fill:none;stroke:#FFFFFF;stroke-width:10.9524;" d="M347.458,351.721c0,0,0,37.841,18.046,48.901l1.164-36.096
		C366.668,364.526,356.772,348.81,347.458,351.721z"/>
	<path style="fill:#FFFFFF;" d="M370.745,365.109l-0.582,37.26c0,0,18.629-7.569,9.896-36.678
		C374.237,357.541,370.745,365.109,370.745,365.109z"/>
	<path style="fill:none;stroke:#FFFFFF;stroke-width:10.9524;" d="M370.745,365.109l-0.582,37.26c0,0,18.629-7.569,9.896-36.678
		C374.237,357.541,370.745,365.109,370.745,365.109z"/>
	<path style="fill:#FFFFFF;" d="M338.764,357.357c0,0,9.236,37.252,17.582,39.541c0,0,3.516,7.907-4.963,3.878
		C342.906,396.745,324.065,363.723,338.764,357.357z"/>
	<path style="fill:none;stroke:#FFFFFF;stroke-width:10.9524;" d="M338.764,357.357c0,0,9.236,37.252,17.582,39.541
		c0,0,3.516,7.907-4.963,3.878C342.906,396.745,324.065,363.723,338.764,357.357z"/>
	<path style="fill:#FFFFFF;" d="M330.575,362.198c0,0,7.568-19.15,20.376-16.087c0,0,7.568-1.532,0.582-6.895
		c-6.985-5.363-19.212,7.661-21.54,13.789L330.575,362.198z"/>
	<path style="fill:none;stroke:#FFFFFF;stroke-width:10.9524;" d="M330.575,362.198c0,0,7.568-19.15,20.376-16.087
		c0,0,7.568-1.532,0.582-6.895c-6.985-5.363-19.212,7.661-21.54,13.789L330.575,362.198z"/>
	<polygon style="fill:#FFFFFF;" points="320.095,321.447 325.917,322.611 334.067,334.837 332.321,342.405 325.335,341.241 
		320.676,331.927 	"/>
	<polygon style="fill:none;stroke:#FFFFFF;stroke-width:10.9524;" points="320.095,321.447 325.917,322.611 334.067,334.837 
		332.321,342.405 325.335,341.241 320.676,331.927 	"/>
	<polygon style="fill:#FFFFFF;" points="332.904,313.298 331.157,324.358 338.143,334.837 339.889,323.774 	"/>
	<polygon style="fill:none;stroke:#FFFFFF;stroke-width:10.9524;" points="332.904,313.298 331.157,324.358 338.143,334.837 
		339.889,323.774 	"/>
	<polygon style="fill:#FFFFFF;" points="344.547,313.298 343.383,324.358 347.458,332.508 349.787,313.88 346.875,310.968 	"/>
	<polygon style="fill:none;stroke:#FFFFFF;stroke-width:10.9524;" points="344.547,313.298 343.383,324.358 347.458,332.508 
		349.787,313.88 346.875,310.968 	"/>
	<polygon style="fill:#FFFFFF;" points="353.279,313.88 353.279,335.419 356.772,340.659 359.684,334.837 360.848,315.043 
		356.772,309.221 	"/>
	<polygon style="fill:none;stroke:#FFFFFF;stroke-width:10.9524;" points="353.279,313.88 353.279,335.419 356.772,340.659 
		359.684,334.837 360.848,315.043 356.772,309.221 	"/>
	<polygon style="fill:#FFFFFF;" points="364.34,315.625 364.34,334.255 368.415,334.837 370.745,322.611 364.922,313.88 	"/>
	<polygon style="fill:none;stroke:#FFFFFF;stroke-width:10.9524;" points="364.34,315.625 364.34,334.255 368.415,334.837 
		370.745,322.611 364.922,313.88 	"/>
	<polygon style="fill:#FFFFFF;" points="375.402,322.611 374.237,337.165 381.223,333.673 383.551,325.523 	"/>
	<polygon style="fill:none;stroke:#FFFFFF;stroke-width:10.9524;" points="375.402,322.611 374.237,337.165 381.223,333.673 
		383.551,325.523 	"/>
	<path style="fill:#FFFFFF;" d="M390.538,352.303l-4.075,7.568l1.164,18.047c0,0,6.986,6.403,9.897-8.15
		C396.942,362.198,396.359,351.721,390.538,352.303z"/>
	<path style="fill:none;stroke:#FFFFFF;stroke-width:10.9524;" d="M390.538,352.303l-4.075,7.568l1.164,18.047
		c0,0,6.986,6.403,9.897-8.15C396.942,362.198,396.359,351.721,390.538,352.303z"/>
	<polygon style="fill:#FFFFFF;" points="401.018,351.138 406.256,356.959 405.674,365.109 401.6,367.438 400.434,357.541 
		398.688,354.048 	"/>
	<polygon style="fill:none;stroke:#FFFFFF;stroke-width:10.9524;" points="401.018,351.138 406.256,356.959 405.674,365.109 
		401.6,367.438 400.434,357.541 398.688,354.048 	"/>
	<path style="fill:#FFFFFF;" d="M356.19,347.646l9.315,6.985l9.314-9.315C374.819,345.316,367.251,331.927,356.19,347.646z"/>
	<path style="fill:none;stroke:#FFFFFF;stroke-width:10.9524;" d="M356.19,347.646l9.315,6.985l9.314-9.315
		C374.819,345.316,367.251,331.927,356.19,347.646z"/>
	<polygon style="fill:#FFFFFF;" points="377.731,348.81 376.567,358.124 382.969,361.034 384.715,354.631 384.134,348.227 	"/>
	<polygon style="fill:none;stroke:#FFFFFF;stroke-width:10.9524;" points="377.731,348.81 376.567,358.124 382.969,361.034 
		384.715,354.631 384.134,348.227 	"/>
	<polygon style="fill:#FFFFFF;" points="505.418,189.295 513.57,189.295 512.986,196.861 506.584,196.861 	"/>
	<polygon style="fill:none;stroke:#FFFFFF;stroke-width:10.9524;" points="505.418,189.295 513.57,189.295 512.986,196.861 
		506.584,196.861 	"/>
	<polygon style="fill:#FFFFFF;" points="520.299,209.334 519.602,215.828 526.559,215.828 	"/>
	<polygon style="fill:none;stroke:#FFFFFF;stroke-width:10.9524;" points="520.299,209.334 519.602,215.828 526.559,215.828 	"/>
	<polygon style="fill:#FFFFFF;" points="554.904,162.126 554.904,167.79 565.301,181.004 568.764,182.891 569.457,174.71 	"/>
	<polygon style="fill:none;stroke:#FFFFFF;stroke-width:10.9524;" points="554.904,162.126 554.904,167.79 565.301,181.004 
		568.764,182.891 569.457,174.71 	"/>
	<polygon style="fill:#FFFFFF;" points="551.799,172.993 551.799,175.68 560.338,188.442 564.607,190.458 564.607,185.756 
		556.07,174.337 	"/>
	<polygon style="fill:none;stroke:#FFFFFF;stroke-width:10.9524;" points="551.799,172.993 551.799,175.68 560.338,188.442 
		564.607,190.458 564.607,185.756 556.07,174.337 	"/>
	<polygon style="fill:#FFFFFF;" points="547.271,177.068 546.56,181.026 556.523,203.459 559.367,199.502 558.656,190.263 
		550.83,179.048 	"/>
	<polygon style="fill:none;stroke:#FFFFFF;stroke-width:10.9524;" points="547.271,177.068 546.56,181.026 556.523,203.459 
		559.367,199.502 558.656,190.263 550.83,179.048 	"/>
	<polygon style="fill:#FFFFFF;" points="542.537,183.472 541.902,189.969 548.875,205.4 551.41,196.468 545.705,186.721 	"/>
	<polygon style="fill:none;stroke:#FFFFFF;stroke-width:10.9524;" points="542.537,183.472 541.902,189.969 548.875,205.4 
		551.41,196.468 545.705,186.721 	"/>
	<path style="fill:#FFFFFF;" d="M534.334,191.04c0,0,9.295,8.085,11.951,24.258l0.664-10.292l-7.967-13.966H534.334z"/>
	<path style="fill:none;stroke:#FFFFFF;stroke-width:10.9524;" d="M534.334,191.04c0,0,9.295,8.085,11.951,24.258l0.664-10.292
		l-7.967-13.966H534.334z"/>
	<polygon style="fill:#FFFFFF;" points="413.242,420.417 406.838,423.909 407.42,426.82 412.078,426.82 414.988,422.745 	"/>
	<polygon style="fill:none;stroke:#FFFFFF;stroke-width:10.9524;" points="413.242,420.417 406.838,423.909 407.42,426.82 
		412.078,426.82 414.988,422.745 	"/>
	<polygon style="fill:#FFFFFF;" points="619.914,294.667 617.004,299.324 624.572,299.324 626.9,294.667 	"/>
	<polygon style="fill:none;stroke:#FFFFFF;stroke-width:10.9524;" points="619.914,294.667 617.004,299.324 624.572,299.324 
		626.9,294.667 	"/>
	<polygon style="fill:#FFFFFF;" points="143.12,153.739 610.021,153.739 380.645,553.11 	"/>
	<polygon style="fill:none;stroke:#FFFFFF;stroke-width:10.9524;" points="143.12,153.739 610.021,153.739 380.645,553.11 	"/>
	<path style="fill:#FFFFFF;" d="M323.982,86.595c-23.676-16.689-56.859,10.674-70.249,20.57
		c-6.403,11.062-9.896,10.48-18.631,37.259c-15.718,20.376-19.793,16.884-33.184,35.512c-9.314,15.138-5.238,32.603-5.238,32.603
		l44.828-47.738l-26.781,45.408l45.992-28.525c0,0,11.061-6.403,16.301,1.747c16.592,27.944-2.329,32.019-1.747,47.157
		c0.581,15.135-2.911,27.943,40.17,91.399c0,0-2.911,9.316,0.583,15.719c3.493,6.404,11.644,10.481,11.644,10.481
		s-4.658,8.148,1.746,13.388c6.403,5.239-6.404,11.645,5.239,25.034l-26.78,27.361H184.454l-23.869,39.588h142.051l45.992-51.814
		c0,0,5.822,6.987,17.465,5.239c11.643-1.746,13.971-5.239,19.211-19.793c0,0,11.061,2.328,16.882-12.809
		c0,0,13.391,2.33,2.91-31.436c0,0,11.645,6.985,33.186,11.643c0,0-4.658,15.72,0,23.87c6.404,9.896,4.076,18.047,4.076,18.047
		l-7.57,1.164v11.645c0,0-6.986,2.909-4.656,5.821l-20.959,2.328c0,0-12.807,2.33-7.568,15.719l-5.239,6.404
		c0,0-4.075,8.15,1.163,11.061h94.312v-9.315h-13.389V432.6h10.478c0,0-0.582-20.958-13.971-26.196v-11.646l-9.316-1.164
		c0,0-25.033-22.704,102.461-56.47c10.48-4.075,11.644-12.809,13.975-26.199c0.582-0.582,9.315,8.733,16.301-8.732
		c6.404,1.746,19.211,4.075,19.211,4.075s20.959,7.568,21.541-13.973c9.314-0.581,6.984-6.985,7.568-16.882l-74.518-28.526
		l-4.078,8.732l9.316,5.241l-1.746,6.402c0,0-19.213-5.82-17.467,14.555c1.748,20.376,1.748,24.451,1.748,24.451
		s1.746,11.061-11.643,8.733c-13.391-2.329-19.795-0.583-23.287-13.391c-3.494-12.807-20.959-58.217-25.617-64.04l17.467-19.21
		c0,0,6.402,5.821,11.06,1.164c4.658-4.657,0,3.492,3.492,4.657c3.494,1.164,12.227,6.405,15.719-6.404
		c3.494-12.808,1.166-1.747,1.166-1.747s13.971-4.074,14.555-22.704c0,0,11.06-3.491,8.148-18.047l-6.986-12.226l9.316-6.404h8.15
		l4.656-5.24c0,0-5.82-13.39-18.629-17.464c-5.822,2.328-6.986,3.493-6.986,3.493v6.403l-9.314,9.898c0,0-5.24-13.973-16.301-12.809
		c0,0-6.986-20.376-15.137-22.123c-8.15-1.746-19.213-1.163-23.287,1.747c-4.076,2.911-26.197-30.272-58.217-26.198
		c-22.705,2.329-69.861,29.109-72.772,26.198C362.6,117.645,357.553,132.393,323.982,86.595z"/>
	<path style="fill:none;stroke:#FFFFFF;stroke-width:10.9524;" d="M323.982,86.595c-23.676-16.689-56.859,10.674-70.249,20.57
		c-6.403,11.062-9.896,10.48-18.631,37.259c-15.718,20.376-19.793,16.884-33.184,35.512c-9.314,15.138-5.238,32.603-5.238,32.603
		l44.828-47.738l-26.781,45.408l45.992-28.525c0,0,11.061-6.403,16.301,1.747c16.592,27.944-2.329,32.019-1.747,47.157
		c0.581,15.135-2.911,27.943,40.17,91.399c0,0-2.911,9.316,0.583,15.719c3.493,6.404,11.644,10.481,11.644,10.481
		s-4.658,8.148,1.746,13.388c6.403,5.239-6.404,11.645,5.239,25.034l-26.78,27.361H184.454l-23.869,39.588h142.051l45.992-51.814
		c0,0,5.822,6.987,17.465,5.239c11.643-1.746,13.971-5.239,19.211-19.793c0,0,11.061,2.328,16.882-12.809
		c0,0,13.391,2.33,2.91-31.436c0,0,11.645,6.985,33.186,11.643c0,0-4.658,15.72,0,23.87c6.404,9.896,4.076,18.047,4.076,18.047
		l-7.57,1.164v11.645c0,0-6.986,2.909-4.656,5.821l-20.959,2.328c0,0-12.807,2.33-7.568,15.719l-5.239,6.404
		c0,0-4.075,8.15,1.163,11.061h94.312v-9.315h-13.389V432.6h10.478c0,0-0.582-20.958-13.971-26.196v-11.646l-9.316-1.164
		c0,0-25.033-22.704,102.461-56.47c10.48-4.075,11.644-12.809,13.975-26.199c0.582-0.582,9.315,8.733,16.301-8.732
		c6.404,1.746,19.211,4.075,19.211,4.075s20.959,7.568,21.541-13.973c9.314-0.581,6.984-6.985,7.568-16.882l-74.518-28.526
		l-4.078,8.732l9.316,5.241l-1.746,6.402c0,0-19.213-5.82-17.467,14.555c1.748,20.376,1.748,24.451,1.748,24.451
		s1.746,11.061-11.643,8.733c-13.391-2.329-19.795-0.583-23.287-13.391c-3.494-12.807-20.959-58.217-25.617-64.04l17.467-19.21
		c0,0,6.402,5.821,11.06,1.164c4.658-4.657,0,3.492,3.492,4.657c3.494,1.164,12.227,6.405,15.719-6.404
		c3.494-12.808,1.166-1.747,1.166-1.747s13.971-4.074,14.555-22.704c0,0,11.06-3.491,8.148-18.047l-6.986-12.226l9.316-6.404h8.15
		l4.656-5.24c0,0-5.82-13.39-18.629-17.464c-5.822,2.328-6.986,3.493-6.986,3.493v6.403l-9.314,9.898c0,0-5.24-13.973-16.301-12.809
		c0,0-6.986-20.376-15.137-22.123c-8.15-1.746-19.213-1.163-23.287,1.747c-4.076,2.911-26.197-30.272-58.217-26.198
		c-22.705,2.329-69.861,29.109-72.772,26.198C362.6,117.645,357.553,132.393,323.982,86.595z"/>
	<path style="fill:#FFFFFF;" d="M471.465,165.964c-5.822-14.555-26.779-4.074-17.465,8.733c12.225,11.061,32.02,39.588,34.93,44.827
		l15.719-16.301c0,0-5.82-5.24-2.91-20.377l-27.363-4.657C474.375,178.19,469.717,177.608,471.465,165.964z"/>
	<path style="fill:none;stroke:#FFFFFF;stroke-width:10.9524;" d="M471.465,165.964c-5.822-14.555-26.779-4.074-17.465,8.733
		c12.225,11.061,32.02,39.588,34.93,44.827l15.719-16.301c0,0-5.82-5.24-2.91-20.377l-27.363-4.657
		C474.375,178.19,469.717,177.608,471.465,165.964z"/>
	<rect x="413.248" y="434.638" style="fill:#FFFFFF;" width="7.859" height="4.365"/>
	<rect x="413.248" y="434.638" style="fill:none;stroke:#FFFFFF;stroke-width:10.9524;" width="7.859" height="4.365"/>
	<rect x="436.824" y="434.929" style="fill:#FFFFFF;" width="7.861" height="4.366"/>
	<rect x="436.824" y="434.929" style="fill:none;stroke:#FFFFFF;stroke-width:10.9524;" width="7.861" height="4.366"/>
	<rect x="457.783" y="434.929" style="fill:#FFFFFF;" width="7.859" height="4.366"/>
	<rect x="457.783" y="434.929" style="fill:none;stroke:#FFFFFF;stroke-width:10.9524;" width="7.859" height="4.366"/>
	<polygon style="fill:#FFFFFF;" points="186.588,419.597 202.114,419.597 188.141,449.094 169.512,449.094 	"/>
	<polygon style="fill:none;stroke:#FFFFFF;stroke-width:10.9524;" points="186.588,419.597 202.114,419.597 188.141,449.094 
		169.512,449.094 	"/>
	<polygon style="fill:#FFFFFF;" points="294.09,419.284 280.745,449.309 301.682,449.647 344.917,401.132 334.684,391.23 
		307.68,419.597 	"/>
	<polygon style="fill:none;stroke:#FFFFFF;stroke-width:10.9524;" points="294.09,419.284 280.745,449.309 301.682,449.647 
		344.917,401.132 334.684,391.23 307.68,419.597 	"/>
	<polygon style="fill:#FFFFFF;" points="506.783,208.851 384.917,340.81 391.124,346.243 512.994,215.062 511.441,208.851 	"/>
	<polygon style="fill:none;stroke:#FFFFFF;stroke-width:10.9524;" points="506.783,208.851 384.917,340.81 391.124,346.243 
		512.994,215.062 511.441,208.851 	"/>
	<polygon style="fill:#FFFFFF;" points="557.24,155.29 557.24,159.948 564.227,159.172 570.435,152.962 568.104,147.527 
		563.447,147.527 	"/>
	<polygon style="fill:none;stroke:#FFFFFF;stroke-width:10.9524;" points="557.24,155.29 557.24,159.948 564.227,159.172 
		570.435,152.962 568.104,147.527 563.447,147.527 	"/>
	<path style="fill:#FFFFFF;" d="M470.301,239.899c0,0-35.514,37.26-75.683,81.505C228.7,255.618,328.25,61.173,470.301,239.899z"/>
	<path style="fill:none;stroke:#FFFFFF;stroke-width:10.9524;" d="M470.301,239.899c0,0-35.514,37.26-75.683,81.505
		C228.7,255.618,328.25,61.173,470.301,239.899z"/>
	<path style="fill:#FFFFFF;" d="M481.652,257.366c20.668,34.348,67.824,131.279-66.658,73.645
		C414.994,331.011,474.375,264.352,481.652,257.366z"/>
	<path style="fill:none;stroke:#FFFFFF;stroke-width:10.9524;" d="M481.652,257.366c20.668,34.348,67.824,131.279-66.658,73.645
		C414.994,331.011,474.375,264.352,481.652,257.366z"/>
	<path style="fill:#FFFFFF;" d="M238.596,145.589c0,0,19.212,19.793,18.947,28.586c0.142,0.596,0.889,4.037,0.541,4.435
		c-8.15,9.315-34.097,22.389-34.097,22.389L245,158.979l-46.072,46.745c0,0-4.578-18.024,14.789-35.742L238.596,145.589z"/>
	<path style="fill:none;stroke:#FFFFFF;stroke-width:10.9524;" d="M238.596,145.589c0,0,19.212,19.793,18.947,28.586
		c0.142,0.596,0.889,4.037,0.541,4.435c-8.15,9.315-34.097,22.389-34.097,22.389L245,158.979l-46.072,46.745
		c0,0-4.578-18.024,14.789-35.742L238.596,145.589z"/>
	<path style="fill:#FFFFFF;" d="M262.506,112.414l-3.534,21.821c0,0,19.794-4.074,7.859,12.518l2.62,2.619
		c0,0,14.438-13.668-6.703-20.275l0.783-7.979l5.733-6.144L262.506,112.414z"/>
	<path style="fill:none;stroke:#FFFFFF;stroke-width:10.9524;" d="M262.506,112.414l-3.534,21.821c0,0,19.794-4.074,7.859,12.518
		l2.62,2.619c0,0,14.438-13.668-6.703-20.275l0.783-7.979l5.733-6.144L262.506,112.414z"/>
	<polygon style="fill:#FFFFFF;" points="545.982,159.56 545.982,172.368 529.682,189.835 522.113,188.669 523.859,182.265 	"/>
	<polygon style="fill:none;stroke:#FFFFFF;stroke-width:10.9524;" points="545.982,159.56 545.982,172.368 529.682,189.835 
		522.113,188.669 523.859,182.265 	"/>
	<path style="fill:#FFFFFF;" d="M509.889,176.443c-2.33,4.657-0.582,8.732-0.582,8.732l6.402,0.582l28.527-30.855
		c0,0-1.164-10.479-10.478-8.15C533.758,146.753,513.381,159.56,509.889,176.443z"/>
	<path style="fill:none;stroke:#FFFFFF;stroke-width:10.9524;" d="M509.889,176.443c-2.33,4.657-0.582,8.732-0.582,8.732
		l6.402,0.582l28.527-30.855c0,0-1.164-10.479-10.478-8.15C533.758,146.753,513.381,159.56,509.889,176.443z"/>
	<path style="fill:#FFFFFF;" d="M523.277,204.389l11.062,16.882l8.15,0.582l0.582-6.985c0,0-3.492-14.41-8.297-17.757
		c-0.582-0.582-10.332-9.023-13.244,6.694"/>
	<path style="fill:none;stroke:#FFFFFF;stroke-width:10.9524;" d="M523.277,204.389l11.062,16.882l8.15,0.582l0.582-6.985
		c0,0-3.492-14.41-8.297-17.757c-0.582-0.582-10.332-9.023-13.244,6.694"/>
	<polygon style="fill:#FFFFFF;" points="485.938,140.648 507.145,156.519 512.135,156.926 511.719,153.671 493.42,136.987 
		486.353,136.174 	"/>
	<polygon style="fill:none;stroke:#FFFFFF;stroke-width:10.9524;" points="485.938,140.648 507.145,156.519 512.135,156.926 
		511.719,153.671 493.42,136.987 486.353,136.174 	"/>
	<polygon style="fill:#FFFFFF;" points="485.105,144.312 507.145,160.181 507.145,164.248 500.908,164.248 479.699,150.821 
		476.787,144.312 	"/>
	<polygon style="fill:none;stroke:#FFFFFF;stroke-width:10.9524;" points="485.105,144.312 507.145,160.181 507.145,164.248 
		500.908,164.248 479.699,150.821 476.787,144.312 	"/>
	<polygon style="fill:#FFFFFF;" points="473.461,162.216 498.412,171.98 501.74,171.573 500.076,167.505 477.621,154.483 
		472.629,154.483 	"/>
	<polygon style="fill:none;stroke:#FFFFFF;stroke-width:10.9524;" points="473.461,162.216 498.412,171.98 501.74,171.573 
		500.076,167.505 477.621,154.483 472.629,154.483 	"/>
	<polygon style="fill:#FFFFFF;" points="474.182,167.323 479.228,168.099 499.023,175.86 499.023,179.354 473.406,175.474 	"/>
	<polygon style="fill:none;stroke:#FFFFFF;stroke-width:10.9524;" points="474.182,167.323 479.228,168.099 499.023,175.86 
		499.023,179.354 473.406,175.474 	"/>
	<polygon style="fill:#FFFFFF;" points="493.42,133.731 515.045,151.23 519.619,151.635 519.205,145.939 500.908,129.257 
		493.006,128.035 	"/>
	<polygon style="fill:none;stroke:#FFFFFF;stroke-width:10.9524;" points="493.42,133.731 515.045,151.23 519.619,151.635 
		519.205,145.939 500.908,129.257 493.006,128.035 	"/>
	<polygon style="fill:#FFFFFF;" points="504.234,126.815 520.451,143.905 523.777,145.125 525.025,139.836 512.551,123.153 
		504.234,121.525 	"/>
	<polygon style="fill:none;stroke:#FFFFFF;stroke-width:10.9524;" points="504.234,126.815 520.451,143.905 523.777,145.125 
		525.025,139.836 512.551,123.153 504.234,121.525 	"/>
	<polygon style="fill:#FFFFFF;" points="518.428,121.525 517.652,125.795 528.131,139.767 530.461,136.661 520.756,123.854 	"/>
	<polygon style="fill:none;stroke:#FFFFFF;stroke-width:10.9524;" points="518.428,121.525 517.652,125.795 528.131,139.767 
		530.461,136.661 520.756,123.854 	"/>
	<polygon style="fill:#FFFFFF;" points="586.154,272.309 590.299,263.684 615.332,274.746 612.158,282.907 619.769,286.501 
		623.363,278.257 633.086,282.062 630.205,290.743 636.221,290.743 643.232,286.925 643.867,277.622 574.318,249.93 
		571.779,255.002 581.504,259.653 579.361,269.01 	"/>
	<polygon style="fill:none;stroke:#FFFFFF;stroke-width:10.9524;" points="586.154,272.309 590.299,263.684 615.332,274.746 
		612.158,282.907 619.769,286.501 623.363,278.257 633.086,282.062 630.205,290.743 636.221,290.743 643.232,286.925 
		643.867,277.622 574.318,249.93 571.779,255.002 581.504,259.653 579.361,269.01 	"/>
	<polygon style="fill:#FFFFFF;" points="592.557,269.785 590.617,275.607 607.693,283.368 610.41,277.936 	"/>
	<polygon style="fill:none;stroke:#FFFFFF;stroke-width:10.9524;" points="592.557,269.785 590.617,275.607 607.693,283.368 
		610.41,277.936 	"/>
	<polygon style="fill:#FFFFFF;" points="624.383,284.145 623.219,288.416 626.711,290.355 628.266,285.31 	"/>
	<polygon style="fill:none;stroke:#FFFFFF;stroke-width:10.9524;" points="624.383,284.145 623.219,288.416 626.711,290.355 
		628.266,285.31 	"/>
	<polygon style="fill:#FFFFFF;" points="409.756,434.153 409.56,442.691 423.728,442.691 425.861,434.346 431.684,434.541 
		434.787,443.079 467.975,443.272 469.332,433.571 475.346,433.571 476.125,444.05 489.318,444.052 489.318,448.707 
		398.307,448.997 396.753,443.468 403.545,434.056 	"/>
	<polygon style="fill:none;stroke:#FFFFFF;stroke-width:10.9524;" points="409.756,434.153 409.56,442.691 423.728,442.691 
		425.861,434.346 431.684,434.541 434.787,443.079 467.975,443.272 469.332,433.571 475.346,433.571 476.125,444.05 
		489.318,444.052 489.318,448.707 398.307,448.997 396.753,443.468 403.545,434.056 	"/>
	<path style="fill:#FFFFFF;" d="M347.462,352.26c0,0,0,37.842,18.047,48.902l1.165-36.096
		C366.674,365.066,356.778,349.35,347.462,352.26z"/>
	<path style="fill:none;stroke:#FFFFFF;stroke-width:10.9524;" d="M347.462,352.26c0,0,0,37.842,18.047,48.902l1.165-36.096
		C366.674,365.066,356.778,349.35,347.462,352.26z"/>
	<path style="fill:#FFFFFF;" d="M370.75,365.649l-0.583,37.259c0,0,18.628-7.568,9.896-36.677
		C374.243,358.081,370.75,365.649,370.75,365.649z"/>
	<path style="fill:none;stroke:#FFFFFF;stroke-width:10.9524;" d="M370.75,365.649l-0.583,37.259c0,0,18.628-7.568,9.896-36.677
		C374.243,358.081,370.75,365.649,370.75,365.649z"/>
	<path style="fill:#FFFFFF;" d="M338.769,357.897c0,0,9.235,37.252,17.582,39.541c0,0,3.515,7.907-4.962,3.878
		C342.911,397.285,324.07,364.263,338.769,357.897z"/>
	<path style="fill:none;stroke:#FFFFFF;stroke-width:10.9524;" d="M338.769,357.897c0,0,9.235,37.252,17.582,39.541
		c0,0,3.515,7.907-4.962,3.878C342.911,397.285,324.07,364.263,338.769,357.897z"/>
	<path style="fill:#FFFFFF;" d="M330.579,362.738c0,0,7.569-19.152,20.377-16.087c0,0,7.568-1.532,0.582-6.895
		c-6.986-5.363-19.212,7.662-21.54,13.789L330.579,362.738z"/>
	<path style="fill:none;stroke:#FFFFFF;stroke-width:10.9524;" d="M330.579,362.738c0,0,7.569-19.152,20.377-16.087
		c0,0,7.568-1.532,0.582-6.895c-6.986-5.363-19.212,7.662-21.54,13.789L330.579,362.738z"/>
	<polygon style="fill:#FFFFFF;" points="320.1,321.986 325.921,323.151 334.073,335.377 332.326,342.945 325.34,341.781 
		320.682,332.467 	"/>
	<polygon style="fill:none;stroke:#FFFFFF;stroke-width:10.9524;" points="320.1,321.986 325.921,323.151 334.073,335.377 
		332.326,342.945 325.34,341.781 320.682,332.467 	"/>
	<polygon style="fill:#FFFFFF;" points="332.909,313.836 331.161,324.897 338.148,335.377 339.895,324.315 	"/>
	<polygon style="fill:none;stroke:#FFFFFF;stroke-width:10.9524;" points="332.909,313.836 331.161,324.897 338.148,335.377 
		339.895,324.315 	"/>
	<polygon style="fill:#FFFFFF;" points="344.551,313.836 343.387,324.897 347.462,333.049 349.792,314.418 346.88,311.507 	"/>
	<polygon style="fill:none;stroke:#FFFFFF;stroke-width:10.9524;" points="344.551,313.836 343.387,324.897 347.462,333.049 
		349.792,314.418 346.88,311.507 	"/>
	<polygon style="fill:#FFFFFF;" points="353.284,314.418 353.284,335.958 356.778,341.198 359.688,335.377 360.852,315.583 
		356.778,309.761 	"/>
	<polygon style="fill:none;stroke:#FFFFFF;stroke-width:10.9524;" points="353.284,314.418 353.284,335.958 356.778,341.198 
		359.688,335.377 360.852,315.583 356.778,309.761 	"/>
	<polygon style="fill:#FFFFFF;" points="364.344,316.165 364.344,334.795 368.42,335.377 370.75,323.151 364.928,314.418 	"/>
	<polygon style="fill:none;stroke:#FFFFFF;stroke-width:10.9524;" points="364.344,316.165 364.344,334.795 368.42,335.377 
		370.75,323.151 364.928,314.418 	"/>
	<polygon style="fill:#FFFFFF;" points="375.407,323.151 374.243,337.705 381.227,334.212 383.557,326.062 	"/>
	<polygon style="fill:none;stroke:#FFFFFF;stroke-width:10.9524;" points="375.407,323.151 374.243,337.705 381.227,334.212 
		383.557,326.062 	"/>
	<path style="fill:#FFFFFF;" d="M390.543,352.842l-4.076,7.568l1.164,18.048c0,0,6.986,6.403,9.896-8.15
		C396.946,362.738,396.365,352.26,390.543,352.842z"/>
	<path style="fill:none;stroke:#FFFFFF;stroke-width:10.9524;" d="M390.543,352.842l-4.076,7.568l1.164,18.048
		c0,0,6.986,6.403,9.896-8.15C396.946,362.738,396.365,352.26,390.543,352.842z"/>
	<polygon style="fill:#FFFFFF;" points="401.021,351.678 406.262,357.499 405.68,365.649 401.603,367.978 400.439,358.081 
		398.693,354.588 	"/>
	<polygon style="fill:none;stroke:#FFFFFF;stroke-width:10.9524;" points="401.021,351.678 406.262,357.499 405.68,365.649 
		401.603,367.978 400.439,358.081 398.693,354.588 	"/>
	<path style="fill:#FFFFFF;" d="M356.195,348.186l9.314,6.984l9.315-9.314C374.825,345.856,367.256,332.467,356.195,348.186z"/>
	<path style="fill:none;stroke:#FFFFFF;stroke-width:10.9524;" d="M356.195,348.186l9.314,6.984l9.315-9.314
		C374.825,345.856,367.256,332.467,356.195,348.186z"/>
	<polygon style="fill:#FFFFFF;" points="377.736,349.35 376.571,358.663 382.975,361.574 384.721,355.171 384.139,348.767 	"/>
	<polygon style="fill:none;stroke:#FFFFFF;stroke-width:10.9524;" points="377.736,349.35 376.571,358.663 382.975,361.574 
		384.721,355.171 384.139,348.767 	"/>
	<polygon style="fill:#FFFFFF;" points="505.424,189.835 513.574,189.835 512.992,197.401 506.588,197.401 	"/>
	<polygon style="fill:none;stroke:#FFFFFF;stroke-width:10.9524;" points="505.424,189.835 513.574,189.835 512.992,197.401 
		506.588,197.401 	"/>
	<polygon style="fill:#FFFFFF;" points="520.303,209.874 519.607,216.368 526.565,216.368 	"/>
	<polygon style="fill:none;stroke:#FFFFFF;stroke-width:10.9524;" points="520.303,209.874 519.607,216.368 526.565,216.368 	"/>
	<polygon style="fill:#FFFFFF;" points="554.91,162.666 554.91,168.328 565.307,181.544 568.769,183.431 569.463,175.251 	"/>
	<polygon style="fill:none;stroke:#FFFFFF;stroke-width:10.9524;" points="554.91,162.666 554.91,168.328 565.307,181.544 
		568.769,183.431 569.463,175.251 	"/>
	<polygon style="fill:#FFFFFF;" points="551.805,173.533 551.805,176.22 560.344,188.982 564.613,190.998 564.613,186.296 
		556.076,174.875 	"/>
	<polygon style="fill:none;stroke:#FFFFFF;stroke-width:10.9524;" points="551.805,173.533 551.805,176.22 560.344,188.982 
		564.613,190.998 564.613,186.296 556.076,174.875 	"/>
	<polygon style="fill:#FFFFFF;" points="547.277,177.608 546.565,181.565 556.527,203.999 559.373,200.04 558.662,190.804 
		550.836,179.588 	"/>
	<polygon style="fill:none;stroke:#FFFFFF;stroke-width:10.9524;" points="547.277,177.608 546.565,181.565 556.527,203.999 
		559.373,200.04 558.662,190.804 550.836,179.588 	"/>
	<polygon style="fill:#FFFFFF;" points="542.543,184.012 541.908,190.509 548.881,205.94 551.416,197.007 545.711,187.26 	"/>
	<polygon style="fill:none;stroke:#FFFFFF;stroke-width:10.9524;" points="542.543,184.012 541.908,190.509 548.881,205.94 
		551.416,197.007 545.711,187.26 	"/>
	<path style="fill:#FFFFFF;" d="M534.34,191.58c0,0,9.293,8.086,11.949,24.258l0.664-10.291l-7.965-13.967H534.34z"/>
	<path style="fill:none;stroke:#FFFFFF;stroke-width:10.9524;" d="M534.34,191.58c0,0,9.293,8.086,11.949,24.258l0.664-10.291
		l-7.965-13.967H534.34z"/>
	<polygon style="fill:#FFFFFF;" points="413.248,420.957 406.844,424.449 407.426,427.36 412.082,427.36 414.994,423.285 	"/>
	<polygon style="fill:none;stroke:#FFFFFF;stroke-width:10.9524;" points="413.248,420.957 406.844,424.449 407.426,427.36 
		412.082,427.36 414.994,423.285 	"/>
	<polygon style="fill:#FFFFFF;" points="619.92,295.207 617.008,299.863 624.576,299.863 626.904,295.207 	"/>
	<polygon style="fill:none;stroke:#FFFFFF;stroke-width:10.9524;" points="619.92,295.207 617.008,299.863 624.576,299.863 
		626.904,295.207 	"/>
	<polygon style="fill:#FFFFFF;" points="143.115,153.747 610.018,153.747 380.64,553.117 	"/>
	<polygon style="fill:none;stroke:#FFFFFF;stroke-width:3.2857;" points="143.115,153.747 610.018,153.747 380.64,553.117 	"/>
	<path style="fill:#FFFFFF;" d="M471.459,165.973c-5.82-14.555-26.779-4.075-17.465,8.731c12.227,11.062,32.02,39.59,34.93,44.828
		l15.719-16.301c0,0-5.82-5.241-2.91-20.376l-27.363-4.658C474.369,178.197,469.713,177.615,471.459,165.973z"/>
	<path style="fill:none;stroke:#FFFFFF;stroke-width:3.2857;" d="M471.459,165.973c-5.82-14.555-26.779-4.075-17.465,8.731
		c12.227,11.062,32.02,39.59,34.93,44.828l15.719-16.301c0,0-5.82-5.241-2.91-20.376l-27.363-4.658
		C474.369,178.197,469.713,177.615,471.459,165.973z"/>
	<rect x="413.242" y="434.645" style="fill:#FFFFFF;" width="7.859" height="4.366"/>
	<rect x="413.242" y="434.645" style="fill:none;stroke:#FFFFFF;stroke-width:3.2857;" width="7.859" height="4.366"/>
	<rect x="436.82" y="434.936" style="fill:#FFFFFF;" width="7.859" height="4.366"/>
	<rect x="436.82" y="434.936" style="fill:none;stroke:#FFFFFF;stroke-width:3.2857;" width="7.859" height="4.366"/>
	<rect x="457.779" y="434.936" style="fill:#FFFFFF;" width="7.859" height="4.366"/>
	<rect x="457.779" y="434.936" style="fill:none;stroke:#FFFFFF;stroke-width:3.2857;" width="7.859" height="4.366"/>
	<polygon style="fill:#FFFFFF;" points="186.583,419.604 202.109,419.604 188.137,449.102 169.506,449.102 	"/>
	<polygon style="fill:none;stroke:#FFFFFF;stroke-width:3.2857;" points="186.583,419.604 202.109,419.604 188.137,449.102 
		169.506,449.102 	"/>
	<polygon style="fill:#FFFFFF;" points="294.086,419.291 280.741,449.316 301.676,449.654 344.912,401.14 334.68,391.238 
		307.675,419.604 	"/>
	<polygon style="fill:none;stroke:#FFFFFF;stroke-width:3.2857;" points="294.086,419.291 280.741,449.316 301.676,449.654 
		344.912,401.14 334.68,391.238 307.675,419.604 	"/>
	<polygon style="fill:#FFFFFF;" points="506.779,208.858 384.911,340.817 391.12,346.252 512.99,215.069 511.438,208.858 	"/>
	<polygon style="fill:none;stroke:#FFFFFF;stroke-width:3.2857;" points="506.779,208.858 384.911,340.817 391.12,346.252 
		512.99,215.069 511.438,208.858 	"/>
	<polygon style="fill:#FFFFFF;" points="557.234,155.298 557.234,159.956 564.221,159.18 570.43,152.97 568.1,147.536 
		563.443,147.536 	"/>
	<polygon style="fill:none;stroke:#FFFFFF;stroke-width:3.2857;" points="557.234,155.298 557.234,159.956 564.221,159.18 
		570.43,152.97 568.1,147.536 563.443,147.536 	"/>
	<path style="fill:#FFFFFF;" d="M470.295,239.907c0,0-35.512,37.26-75.682,81.505C228.694,255.626,328.247,61.181,470.295,239.907z"
		/>
	<path style="fill:none;stroke:#FFFFFF;stroke-width:3.2857;" d="M470.295,239.907c0,0-35.512,37.26-75.682,81.505
		C228.694,255.626,328.247,61.181,470.295,239.907z"/>
	<path style="fill:#FFFFFF;" d="M481.648,257.373c20.666,34.349,67.822,131.28-66.66,73.645
		C414.988,331.018,474.369,264.36,481.648,257.373z"/>
	<path style="fill:none;stroke:#FFFFFF;stroke-width:3.2857;" d="M481.648,257.373c20.666,34.349,67.822,131.28-66.66,73.645
		C414.988,331.018,474.369,264.36,481.648,257.373z"/>
	<path style="fill:#FFFFFF;" d="M238.59,145.596c0,0,19.212,19.794,18.947,28.587c0.142,0.597,0.891,4.037,0.543,4.436
		c-8.15,9.313-34.098,22.388-34.098,22.388l21.012-42.02l-46.072,46.744c0,0-4.576-18.024,14.791-35.74L238.59,145.596z"/>
	<path style="fill:none;stroke:#FFFFFF;stroke-width:3.2857;" d="M238.59,145.596c0,0,19.212,19.794,18.947,28.587
		c0.142,0.597,0.891,4.037,0.543,4.436c-8.15,9.313-34.098,22.388-34.098,22.388l21.012-42.02l-46.072,46.744
		c0,0-4.576-18.024,14.791-35.74L238.59,145.596z"/>
	<path style="fill:#FFFFFF;" d="M262.501,112.422l-3.533,21.821c0,0,19.793-4.074,7.858,12.518l2.619,2.621
		c0,0,14.439-13.67-6.702-20.277l0.782-7.979l5.734-6.144L262.501,112.422z"/>
	<path style="fill:none;stroke:#FFFFFF;stroke-width:3.2857;" d="M262.501,112.422l-3.533,21.821c0,0,19.793-4.074,7.858,12.518
		l2.619,2.621c0,0,14.439-13.67-6.702-20.277l0.782-7.979l5.734-6.144L262.501,112.422z"/>
	<polygon style="fill:#FFFFFF;" points="545.979,159.568 545.979,172.376 529.676,189.842 522.109,188.678 523.855,182.273 	"/>
	<polygon style="fill:none;stroke:#FFFFFF;stroke-width:3.2857;" points="545.979,159.568 545.979,172.376 529.676,189.842 
		522.109,188.678 523.855,182.273 	"/>
	<path style="fill:#FFFFFF;" d="M509.883,176.452c-2.328,4.656-0.582,8.731-0.582,8.731l6.404,0.583l28.527-30.855
		c0,0-1.166-10.479-10.48-8.15C533.752,146.761,513.375,159.568,509.883,176.452z"/>
	<path style="fill:none;stroke:#FFFFFF;stroke-width:3.2857;" d="M509.883,176.452c-2.328,4.656-0.582,8.731-0.582,8.731
		l6.404,0.583l28.527-30.855c0,0-1.166-10.479-10.48-8.15C533.752,146.761,513.375,159.568,509.883,176.452z"/>
	<path style="fill:#FFFFFF;" d="M523.273,204.396l11.061,16.883l8.15,0.582l0.582-6.985c0,0-3.492-14.409-8.295-17.757
		c-0.582-0.582-10.334-9.023-13.246,6.695"/>
	<path style="fill:none;stroke:#FFFFFF;stroke-width:3.2857;" d="M523.273,204.396l11.061,16.883l8.15,0.582l0.582-6.985
		c0,0-3.492-14.409-8.295-17.757c-0.582-0.582-10.334-9.023-13.246,6.695"/>
	<polygon style="fill:#FFFFFF;" points="485.932,140.656 507.141,156.526 512.129,156.934 511.715,153.679 493.416,136.995 
		486.348,136.182 	"/>
	<polygon style="fill:none;stroke:#FFFFFF;stroke-width:3.2857;" points="485.932,140.656 507.141,156.526 512.129,156.934 
		511.715,153.679 493.416,136.995 486.348,136.182 	"/>
	<polygon style="fill:#FFFFFF;" points="485.1,144.318 507.141,160.188 507.141,164.257 500.902,164.257 479.693,150.829 
		476.783,144.318 	"/>
	<polygon style="fill:none;stroke:#FFFFFF;stroke-width:3.2857;" points="485.1,144.318 507.141,160.188 507.141,164.257 
		500.902,164.257 479.693,150.829 476.783,144.318 	"/>
	<polygon style="fill:#FFFFFF;" points="473.457,162.224 498.408,171.988 501.734,171.581 500.07,167.514 477.615,154.491 
		472.625,154.491 	"/>
	<polygon style="fill:none;stroke:#FFFFFF;stroke-width:3.2857;" points="473.457,162.224 498.408,171.988 501.734,171.581 
		500.07,167.514 477.615,154.491 472.625,154.491 	"/>
	<polygon style="fill:#FFFFFF;" points="474.178,167.331 479.225,168.106 499.018,175.869 499.018,179.362 473.4,175.481 	"/>
	<polygon style="fill:none;stroke:#FFFFFF;stroke-width:3.2857;" points="474.178,167.331 479.225,168.106 499.018,175.869 
		499.018,179.362 473.4,175.481 	"/>
	<polygon style="fill:#FFFFFF;" points="493.416,133.739 515.041,151.237 519.613,151.644 519.199,145.947 500.902,129.265 
		493.002,128.043 	"/>
	<polygon style="fill:none;stroke:#FFFFFF;stroke-width:3.2857;" points="493.416,133.739 515.041,151.237 519.613,151.644 
		519.199,145.947 500.902,129.265 493.002,128.043 	"/>
	<polygon style="fill:#FFFFFF;" points="504.23,126.823 520.445,143.913 523.773,145.133 525.019,139.844 512.547,123.161 
		504.23,121.532 	"/>
	<polygon style="fill:none;stroke:#FFFFFF;stroke-width:3.2857;" points="504.23,126.823 520.445,143.913 523.773,145.133 
		525.019,139.844 512.547,123.161 504.23,121.532 	"/>
	<polygon style="fill:#FFFFFF;" points="518.422,121.532 517.646,125.802 528.127,139.774 530.455,136.669 520.752,123.862 	"/>
	<polygon style="fill:none;stroke:#FFFFFF;stroke-width:3.2857;" points="518.422,121.532 517.646,125.802 528.127,139.774 
		530.455,136.669 520.752,123.862 	"/>
	<polygon style="fill:#FFFFFF;" points="586.148,272.316 590.293,263.69 615.326,274.753 612.152,282.915 619.764,286.509 
		623.357,278.265 633.08,282.069 630.199,290.752 636.217,290.752 643.228,286.933 643.861,277.631 574.312,249.938 571.775,255.01 
		581.5,259.66 579.357,269.017 	"/>
	<polygon style="fill:none;stroke:#FFFFFF;stroke-width:3.2857;" points="586.148,272.316 590.293,263.69 615.326,274.753 
		612.152,282.915 619.764,286.509 623.357,278.265 633.08,282.069 630.199,290.752 636.217,290.752 643.228,286.933 
		643.861,277.631 574.312,249.938 571.775,255.01 581.5,259.66 579.357,269.017 	"/>
	<polygon style="fill:#FFFFFF;" points="592.551,269.793 590.611,275.615 607.688,283.376 610.406,277.943 	"/>
	<polygon style="fill:none;stroke:#FFFFFF;stroke-width:3.2857;" points="592.551,269.793 590.611,275.615 607.688,283.376 
		610.406,277.943 	"/>
	<polygon style="fill:#FFFFFF;" points="624.377,284.153 623.213,288.424 626.705,290.362 628.26,285.317 	"/>
	<polygon style="fill:none;stroke:#FFFFFF;stroke-width:3.2857;" points="624.377,284.153 623.213,288.424 626.705,290.362 
		628.26,285.317 	"/>
	<polygon style="fill:#FFFFFF;" points="409.752,434.16 409.555,442.698 423.725,442.698 425.857,434.354 431.68,434.548 
		434.783,443.087 467.969,443.28 469.326,433.578 475.342,433.578 476.119,444.058 489.314,444.059 489.314,448.715 
		398.301,449.005 396.749,443.475 403.541,434.064 	"/>
	<polygon style="fill:none;stroke:#FFFFFF;stroke-width:3.2857;" points="409.752,434.16 409.555,442.698 423.725,442.698 
		425.857,434.354 431.68,434.548 434.783,443.087 467.969,443.28 469.326,433.578 475.342,433.578 476.119,444.058 489.314,444.059 
		489.314,448.715 398.301,449.005 396.749,443.475 403.541,434.064 	"/>
	<path style="fill:#FFFFFF;" d="M347.458,352.269c0,0,0,37.84,18.046,48.9l1.164-36.095
		C366.668,365.074,356.772,349.356,347.458,352.269z"/>
	<path style="fill:none;stroke:#FFFFFF;stroke-width:3.2857;" d="M347.458,352.269c0,0,0,37.84,18.046,48.9l1.164-36.095
		C366.668,365.074,356.772,349.356,347.458,352.269z"/>
	<path style="fill:#FFFFFF;" d="M370.745,365.657l-0.582,37.26c0,0,18.629-7.569,9.896-36.679
		C374.237,358.089,370.745,365.657,370.745,365.657z"/>
	<path style="fill:none;stroke:#FFFFFF;stroke-width:3.2857;" d="M370.745,365.657l-0.582,37.26c0,0,18.629-7.569,9.896-36.679
		C374.237,358.089,370.745,365.657,370.745,365.657z"/>
	<path style="fill:#FFFFFF;" d="M338.764,357.905c0,0,9.236,37.252,17.582,39.541c0,0,3.516,7.907-4.963,3.877
		C342.906,397.293,324.065,364.27,338.764,357.905z"/>
	<path style="fill:none;stroke:#FFFFFF;stroke-width:3.2857;" d="M338.764,357.905c0,0,9.236,37.252,17.582,39.541
		c0,0,3.516,7.907-4.963,3.877C342.906,397.293,324.065,364.27,338.764,357.905z"/>
	<path style="fill:#FFFFFF;" d="M330.575,362.746c0,0,7.568-19.15,20.376-16.088c0,0,7.568-1.531,0.582-6.896
		c-6.985-5.362-19.212,7.663-21.54,13.79L330.575,362.746z"/>
	<path style="fill:none;stroke:#FFFFFF;stroke-width:3.2857;" d="M330.575,362.746c0,0,7.568-19.15,20.376-16.088
		c0,0,7.568-1.531,0.582-6.896c-6.985-5.362-19.212,7.663-21.54,13.79L330.575,362.746z"/>
	<polygon style="fill:#FFFFFF;" points="320.095,321.995 325.917,323.159 334.067,335.385 332.321,342.952 325.335,341.788 
		320.676,332.474 	"/>
	<polygon style="fill:none;stroke:#FFFFFF;stroke-width:3.2857;" points="320.095,321.995 325.917,323.159 334.067,335.385 
		332.321,342.952 325.335,341.788 320.676,332.474 	"/>
	<polygon style="fill:#FFFFFF;" points="332.904,313.845 331.157,324.905 338.143,335.385 339.889,324.322 	"/>
	<polygon style="fill:none;stroke:#FFFFFF;stroke-width:3.2857;" points="332.904,313.845 331.157,324.905 338.143,335.385 
		339.889,324.322 	"/>
	<polygon style="fill:#FFFFFF;" points="344.547,313.845 343.383,324.905 347.458,333.056 349.787,314.427 346.875,311.516 	"/>
	<polygon style="fill:none;stroke:#FFFFFF;stroke-width:3.2857;" points="344.547,313.845 343.383,324.905 347.458,333.056 
		349.787,314.427 346.875,311.516 	"/>
	<polygon style="fill:#FFFFFF;" points="353.279,314.427 353.279,335.967 356.772,341.206 359.684,335.385 360.848,315.591 
		356.772,309.769 	"/>
	<polygon style="fill:none;stroke:#FFFFFF;stroke-width:3.2857;" points="353.279,314.427 353.279,335.967 356.772,341.206 
		359.684,335.385 360.848,315.591 356.772,309.769 	"/>
	<polygon style="fill:#FFFFFF;" points="364.34,316.172 364.34,334.803 368.415,335.385 370.745,323.159 364.922,314.427 	"/>
	<polygon style="fill:none;stroke:#FFFFFF;stroke-width:3.2857;" points="364.34,316.172 364.34,334.803 368.415,335.385 
		370.745,323.159 364.922,314.427 	"/>
	<polygon style="fill:#FFFFFF;" points="375.402,323.159 374.237,337.713 381.223,334.221 383.551,326.07 	"/>
	<polygon style="fill:none;stroke:#FFFFFF;stroke-width:3.2857;" points="375.402,323.159 374.237,337.713 381.223,334.221 
		383.551,326.07 	"/>
	<path style="fill:#FFFFFF;" d="M390.538,352.851l-4.075,7.568l1.164,18.047c0,0,6.986,6.403,9.897-8.15
		C396.942,362.746,396.359,352.269,390.538,352.851z"/>
	<path style="fill:none;stroke:#FFFFFF;stroke-width:3.2857;" d="M390.538,352.851l-4.075,7.568l1.164,18.047
		c0,0,6.986,6.403,9.897-8.15C396.942,362.746,396.359,352.269,390.538,352.851z"/>
	<polygon style="fill:#FFFFFF;" points="401.018,351.686 406.256,357.507 405.674,365.657 401.6,367.985 400.434,358.089 
		398.688,354.596 	"/>
	<polygon style="fill:none;stroke:#FFFFFF;stroke-width:3.2857;" points="401.018,351.686 406.256,357.507 405.674,365.657 
		401.6,367.985 400.434,358.089 398.688,354.596 	"/>
	<path style="fill:#FFFFFF;" d="M356.19,348.193l9.315,6.985l9.314-9.315C374.819,345.863,367.251,332.474,356.19,348.193z"/>
	<path style="fill:none;stroke:#FFFFFF;stroke-width:3.2857;" d="M356.19,348.193l9.315,6.985l9.314-9.315
		C374.819,345.863,367.251,332.474,356.19,348.193z"/>
	<polygon style="fill:#FFFFFF;" points="377.731,349.356 376.567,358.672 382.969,361.582 384.715,355.179 384.134,348.774 	"/>
	<polygon style="fill:none;stroke:#FFFFFF;stroke-width:3.2857;" points="377.731,349.356 376.567,358.672 382.969,361.582 
		384.715,355.179 384.134,348.774 	"/>
	<polygon style="fill:#FFFFFF;" points="505.418,189.842 513.57,189.842 512.986,197.409 506.584,197.409 	"/>
	<polygon style="fill:none;stroke:#FFFFFF;stroke-width:3.2857;" points="505.418,189.842 513.57,189.842 512.986,197.409 
		506.584,197.409 	"/>
	<polygon style="fill:#FFFFFF;" points="520.299,209.881 519.602,216.376 526.559,216.376 	"/>
	<polygon style="fill:none;stroke:#FFFFFF;stroke-width:3.2857;" points="520.299,209.881 519.602,216.376 526.559,216.376 	"/>
	<polygon style="fill:#FFFFFF;" points="554.904,162.674 554.904,168.337 565.301,181.552 568.764,183.439 569.457,175.259 	"/>
	<polygon style="fill:none;stroke:#FFFFFF;stroke-width:3.2857;" points="554.904,162.674 554.904,168.337 565.301,181.552 
		568.764,183.439 569.457,175.259 	"/>
	<polygon style="fill:#FFFFFF;" points="551.799,173.54 551.799,176.227 560.338,188.989 564.607,191.006 564.607,186.304 
		556.07,174.884 	"/>
	<polygon style="fill:none;stroke:#FFFFFF;stroke-width:3.2857;" points="551.799,173.54 551.799,176.227 560.338,188.989 
		564.607,191.006 564.607,186.304 556.07,174.884 	"/>
	<polygon style="fill:#FFFFFF;" points="547.271,177.615 546.56,181.574 556.523,204.007 559.367,200.049 558.656,190.812 
		550.83,179.595 	"/>
	<polygon style="fill:none;stroke:#FFFFFF;stroke-width:3.2857;" points="547.271,177.615 546.56,181.574 556.523,204.007 
		559.367,200.049 558.656,190.812 550.83,179.595 	"/>
	<polygon style="fill:#FFFFFF;" points="542.537,184.019 541.902,190.517 548.875,205.947 551.41,197.016 545.705,187.269 	"/>
	<polygon style="fill:none;stroke:#FFFFFF;stroke-width:3.2857;" points="542.537,184.019 541.902,190.517 548.875,205.947 
		551.41,197.016 545.705,187.269 	"/>
	<path style="fill:#FFFFFF;" d="M534.334,191.587c0,0,9.295,8.087,11.951,24.259l0.664-10.292l-7.967-13.967H534.334z"/>
	<path style="fill:none;stroke:#FFFFFF;stroke-width:3.2857;" d="M534.334,191.587c0,0,9.295,8.087,11.951,24.259l0.664-10.292
		l-7.967-13.967H534.334z"/>
	<polygon style="fill:#FFFFFF;" points="413.242,420.964 406.838,424.457 407.42,427.367 412.078,427.367 414.988,423.293 	"/>
	<polygon style="fill:none;stroke:#FFFFFF;stroke-width:3.2857;" points="413.242,420.964 406.838,424.457 407.42,427.367 
		412.078,427.367 414.988,423.293 	"/>
	<polygon style="fill:#FFFFFF;" points="619.914,295.215 617.004,299.872 624.572,299.872 626.9,295.215 	"/>
	<polygon style="fill:none;stroke:#FFFFFF;stroke-width:3.2857;" points="619.914,295.215 617.004,299.872 624.572,299.872 
		626.9,295.215 	"/>
	<polygon style="fill:#D4C38D;" points="143.12,154.286 610.021,154.286 380.645,553.657 	"/>
	<polygon style="fill:none;stroke:#000000;stroke-width:9.3148;" points="143.12,154.286 610.021,154.286 380.645,553.657 	"/>
	<path d="M323.982,87.142c-23.676-16.69-56.859,10.674-70.249,20.57c-6.403,11.062-9.896,10.48-18.631,37.259
		c-15.718,20.377-19.793,16.885-33.184,35.513c-9.314,15.138-5.238,32.602-5.238,32.602l44.828-47.738l-26.781,45.409l45.992-28.526
		c0,0,11.061-6.403,16.301,1.747c16.592,27.944-2.329,32.019-1.747,47.156c0.581,15.136-2.911,27.943,40.17,91.4
		c0,0-2.911,9.315,0.583,15.719c3.493,6.404,11.644,10.48,11.644,10.48s-4.658,8.148,1.746,13.389
		c6.403,5.238-6.404,11.643,5.239,25.033l-26.78,27.362H184.454l-23.869,39.588h142.051l45.992-51.814c0,0,5.822,6.986,17.465,5.239
		c11.643-1.747,13.971-5.239,19.211-19.794c0,0,11.061,2.329,16.882-12.808c0,0,13.391,2.329,2.91-31.438
		c0,0,11.645,6.986,33.186,11.643c0,0-4.658,15.72,0,23.87c6.404,9.896,4.076,18.046,4.076,18.046l-7.57,1.166v11.643
		c0,0-6.986,2.909-4.656,5.821l-20.959,2.328c0,0-12.807,2.329-7.568,15.719l-5.239,6.404c0,0-4.075,8.15,1.163,11.06h94.312v-9.315
		h-13.389v-8.731h10.478c0,0-0.582-20.958-13.971-26.197v-11.645l-9.316-1.164c0,0-25.033-22.704,102.461-56.47
		c10.48-4.076,11.644-12.81,13.975-26.199c0.582-0.582,9.315,8.733,16.301-8.733c6.404,1.746,19.211,4.075,19.211,4.075
		s20.959,7.568,21.541-13.973c9.314-0.581,6.984-6.985,7.568-16.882l-74.518-28.526l-4.078,8.731l9.316,5.241l-1.746,6.402
		c0,0-19.213-5.82-17.467,14.555c1.748,20.376,1.748,24.451,1.748,24.451s1.746,11.062-11.643,8.733
		c-13.391-2.33-19.795-0.583-23.287-13.391c-3.494-12.808-20.959-58.217-25.617-64.04l17.467-19.211c0,0,6.402,5.821,11.06,1.165
		c4.658-4.658,0,3.492,3.492,4.656c3.494,1.164,12.227,6.405,15.719-6.403c3.494-12.808,1.166-1.747,1.166-1.747
		s13.971-4.074,14.555-22.704c0,0,11.06-3.492,8.148-18.047l-6.986-12.226l9.316-6.404h8.15l4.656-5.239
		c0,0-5.82-13.391-18.629-17.466c-5.822,2.329-6.986,3.493-6.986,3.493v6.404l-9.314,9.896c0,0-5.24-13.973-16.301-12.809
		c0,0-6.986-20.375-15.137-22.121c-8.15-1.747-19.213-1.164-23.287,1.746c-4.076,2.911-26.197-30.273-58.217-26.198
		c-22.705,2.328-69.861,29.109-72.772,26.198C362.6,118.192,357.553,132.94,323.982,87.142z"/>
	<path style="fill:none;stroke:#000000;stroke-width:1.1644;" d="M323.982,87.142c-23.676-16.69-56.859,10.674-70.249,20.57
		c-6.403,11.062-9.896,10.48-18.631,37.259c-15.718,20.377-19.793,16.885-33.184,35.513c-9.314,15.138-5.238,32.602-5.238,32.602
		l44.828-47.738l-26.781,45.409l45.992-28.526c0,0,11.061-6.403,16.301,1.747c16.592,27.944-2.329,32.019-1.747,47.156
		c0.581,15.136-2.911,27.943,40.17,91.4c0,0-2.911,9.315,0.583,15.719c3.493,6.404,11.644,10.48,11.644,10.48
		s-4.658,8.148,1.746,13.389c6.403,5.238-6.404,11.643,5.239,25.033l-26.78,27.362H184.454l-23.869,39.588h142.051l45.992-51.814
		c0,0,5.822,6.986,17.465,5.239c11.643-1.747,13.971-5.239,19.211-19.794c0,0,11.061,2.329,16.882-12.808
		c0,0,13.391,2.329,2.91-31.438c0,0,11.645,6.986,33.186,11.643c0,0-4.658,15.72,0,23.87c6.404,9.896,4.076,18.046,4.076,18.046
		l-7.57,1.166v11.643c0,0-6.986,2.909-4.656,5.821l-20.959,2.328c0,0-12.807,2.329-7.568,15.719l-5.239,6.404
		c0,0-4.075,8.15,1.163,11.06h94.312v-9.315h-13.389v-8.731h10.478c0,0-0.582-20.958-13.971-26.197v-11.645l-9.316-1.164
		c0,0-25.033-22.704,102.461-56.47c10.48-4.076,11.644-12.81,13.975-26.199c0.582-0.582,9.315,8.733,16.301-8.733
		c6.404,1.746,19.211,4.075,19.211,4.075s20.959,7.568,21.541-13.973c9.314-0.581,6.984-6.985,7.568-16.882l-74.518-28.526
		l-4.078,8.731l9.316,5.241l-1.746,6.402c0,0-19.213-5.82-17.467,14.555c1.748,20.376,1.748,24.451,1.748,24.451
		s1.746,11.062-11.643,8.733c-13.391-2.33-19.795-0.583-23.287-13.391c-3.494-12.808-20.959-58.217-25.617-64.04l17.467-19.211
		c0,0,6.402,5.821,11.06,1.165c4.658-4.658,0,3.492,3.492,4.656c3.494,1.164,12.227,6.405,15.719-6.403
		c3.494-12.808,1.166-1.747,1.166-1.747s13.971-4.074,14.555-22.704c0,0,11.06-3.492,8.148-18.047l-6.986-12.226l9.316-6.404h8.15
		l4.656-5.239c0,0-5.82-13.391-18.629-17.466c-5.822,2.329-6.986,3.493-6.986,3.493v6.404l-9.314,9.896
		c0,0-5.24-13.973-16.301-12.809c0,0-6.986-20.375-15.137-22.121c-8.15-1.747-19.213-1.164-23.287,1.746
		c-4.076,2.911-26.197-30.273-58.217-26.198c-22.705,2.328-69.861,29.109-72.772,26.198
		C362.6,118.192,357.553,132.94,323.982,87.142z"/>
	<path style="fill:#D4C38D;" d="M471.465,166.512c-5.822-14.554-26.779-4.074-17.465,8.732c12.225,11.062,32.02,39.588,34.93,44.828
		l15.719-16.301c0,0-5.82-5.24-2.91-20.377l-27.363-4.657C474.375,178.737,469.717,178.155,471.465,166.512z"/>
	<rect x="413.248" y="435.186" style="fill:#D4C38D;" width="7.859" height="4.365"/>
	<rect x="436.824" y="435.476" style="fill:#D4C38D;" width="7.861" height="4.367"/>
	<rect x="457.783" y="435.476" style="fill:#FFFFFF;" width="7.859" height="4.367"/>
	<polygon style="fill:#FFFFFF;" points="186.588,420.145 202.114,420.145 188.141,449.642 169.512,449.642 	"/>
	<polygon style="fill:#FFFFFF;" points="294.09,419.831 280.745,449.856 301.682,450.194 344.917,401.68 334.684,391.778 
		307.68,420.145 	"/>
	<polygon style="fill:#FFFFFF;" points="506.783,209.398 384.917,341.357 391.124,346.791 512.994,215.609 511.441,209.398 	"/>
	<polygon style="fill:#FFFFFF;" points="557.24,155.839 557.24,160.496 564.227,159.72 570.435,153.509 568.104,148.075 
		563.447,148.075 	"/>
	<path style="fill:#FFFFFF;" d="M470.301,240.448c0,0-35.514,37.26-75.683,81.505C228.7,256.166,328.25,61.722,470.301,240.448z"/>
	<path style="fill:#FFFFFF;" d="M481.652,257.914c20.668,34.348,67.824,131.279-66.658,73.643
		C414.994,331.558,474.375,264.899,481.652,257.914z"/>
	<path style="fill:#FFFFFF;" d="M238.596,146.136c0,0,19.212,19.794,18.947,28.587c0.142,0.595,0.889,4.036,0.541,4.434
		c-8.15,9.314-34.097,22.389-34.097,22.389L245,159.526l-46.072,46.744c0,0-4.578-18.023,14.789-35.742L238.596,146.136z"/>
	<path style="fill:#FFFFFF;" d="M262.506,112.962l-3.534,21.822c0,0,19.794-4.076,7.859,12.517l2.62,2.619
		c0,0,14.438-13.668-6.703-20.276l0.783-7.978l5.733-6.143L262.506,112.962z"/>
	<polygon style="fill:#FFFFFF;" points="545.982,160.108 545.982,172.916 529.682,190.382 522.113,189.216 523.859,182.813 	"/>
	<path style="fill:#FFFFFF;" d="M509.889,176.991c-2.33,4.658-0.582,8.732-0.582,8.732l6.402,0.583l28.527-30.854
		c0,0-1.164-10.48-10.478-8.15C533.758,147.301,513.381,160.108,509.889,176.991z"/>
	<path style="fill:#FFFFFF;" d="M523.277,204.936l11.062,16.882l8.15,0.583l0.582-6.986c0,0-3.492-14.409-8.297-17.756
		c-0.582-0.583-10.332-9.024-13.244,6.694"/>
	<polygon style="fill:#FFFFFF;" points="485.938,141.195 507.145,157.067 512.135,157.474 511.719,154.219 493.42,137.534 
		486.353,136.722 	"/>
	<polygon style="fill:#FFFFFF;" points="485.105,144.858 507.145,160.728 507.145,164.796 500.908,164.796 479.699,151.369 
		476.787,144.858 	"/>
	<polygon style="fill:#FFFFFF;" points="473.461,162.764 498.412,172.528 501.74,172.121 500.076,168.053 477.621,155.032 
		472.629,155.032 	"/>
	<polygon style="fill:#FFFFFF;" points="474.182,167.871 479.228,168.647 499.023,176.408 499.023,179.901 473.406,176.021 	"/>
	<polygon style="fill:#FFFFFF;" points="493.42,134.28 515.045,151.778 519.619,152.183 519.205,146.487 500.908,129.804 
		493.006,128.583 	"/>
	<polygon style="fill:#FFFFFF;" points="504.234,127.363 520.451,144.452 523.777,145.673 525.025,140.384 512.551,123.7 
		504.234,122.072 	"/>
	<polygon style="fill:#FFFFFF;" points="518.428,122.072 517.652,126.343 528.131,140.314 530.461,137.21 520.756,124.401 	"/>
	<polygon style="fill:#FFFFFF;" points="586.154,272.855 590.299,264.23 615.332,275.293 612.158,283.456 619.769,287.049 
		623.363,278.805 633.086,282.61 630.205,291.291 636.221,291.291 643.232,287.473 643.867,278.169 574.318,250.478 571.779,255.55 
		581.504,260.201 579.361,269.558 	"/>
	<polygon style="fill:#FFFFFF;" points="592.557,270.333 590.617,276.155 607.693,283.917 610.41,278.483 	"/>
	<polygon style="fill:#FFFFFF;" points="624.383,284.692 623.219,288.964 626.711,290.902 628.266,285.857 	"/>
	<polygon style="fill:#FFFFFF;" points="409.756,434.7 409.56,443.238 423.728,443.238 425.861,434.894 431.684,435.088 
		434.787,443.627 467.975,443.82 469.332,434.118 475.346,434.118 476.125,444.598 489.318,444.599 489.318,449.254 
		398.307,449.545 396.753,444.015 403.545,434.604 	"/>
	<path style="fill:#FFFFFF;" d="M347.462,352.807c0,0,0,37.842,18.047,48.902l1.165-36.095
		C366.674,365.614,356.778,349.897,347.462,352.807z"/>
	<path style="fill:#FFFFFF;" d="M370.75,366.198l-0.583,37.258c0,0,18.628-7.568,9.896-36.677
		C374.243,358.629,370.75,366.198,370.75,366.198z"/>
	<path style="fill:#FFFFFF;" d="M338.769,358.445c0,0,9.235,37.252,17.582,39.541c0,0,3.515,7.907-4.962,3.877
		C342.911,397.833,324.07,364.81,338.769,358.445z"/>
	<path style="fill:#FFFFFF;" d="M330.579,363.286c0,0,7.569-19.152,20.377-16.088c0,0,7.568-1.531,0.582-6.896
		c-6.986-5.362-19.212,7.663-21.54,13.79L330.579,363.286z"/>
	<polygon style="fill:#FFFFFF;" points="320.1,322.534 325.921,323.699 334.073,335.925 332.326,343.492 325.34,342.328 
		320.682,333.014 	"/>
	<polygon style="fill:#FFFFFF;" points="332.909,314.384 331.161,325.444 338.148,335.925 339.895,324.862 	"/>
	<polygon style="fill:#FFFFFF;" points="344.551,314.384 343.387,325.444 347.462,333.596 349.792,314.966 346.88,312.055 	"/>
	<polygon style="fill:#FFFFFF;" points="353.284,314.966 353.284,336.507 356.778,341.746 359.688,335.925 360.852,316.131 
		356.778,310.309 	"/>
	<polygon style="fill:#FFFFFF;" points="364.344,316.712 364.344,335.343 368.42,335.925 370.75,323.699 364.928,314.966 	"/>
	<polygon style="fill:#FFFFFF;" points="375.407,323.699 374.243,338.253 381.227,334.76 383.557,326.61 	"/>
	<path style="fill:#FFFFFF;" d="M390.543,353.389l-4.076,7.568l1.164,18.049c0,0,6.986,6.403,9.896-8.15
		C396.946,363.286,396.365,352.807,390.543,353.389z"/>
	<polygon style="fill:#FFFFFF;" points="401.021,352.226 406.262,358.048 405.68,366.198 401.603,368.526 400.439,358.629 
		398.693,355.136 	"/>
	<path style="fill:#FFFFFF;" d="M356.195,348.733l9.314,6.985l9.315-9.315C374.825,346.403,367.256,333.014,356.195,348.733z"/>
	<polygon style="fill:#FFFFFF;" points="377.736,349.897 376.571,359.211 382.975,362.122 384.721,355.719 384.139,349.315 	"/>
	<polygon style="fill:#FFFFFF;" points="505.424,190.382 513.574,190.382 512.992,197.949 506.588,197.949 	"/>
	<polygon style="fill:#FFFFFF;" points="520.303,210.421 519.607,216.916 526.565,216.916 	"/>
	<polygon style="fill:#FFFFFF;" points="554.91,163.214 554.91,168.876 565.307,182.092 568.769,183.979 569.463,175.799 	"/>
	<polygon style="fill:#FFFFFF;" points="551.805,174.08 551.805,176.768 560.344,189.529 564.613,191.546 564.613,186.844 
		556.076,175.423 	"/>
	<polygon style="fill:#FFFFFF;" points="547.277,178.155 546.565,182.113 556.527,204.548 559.373,200.588 558.662,191.352 
		550.836,180.136 	"/>
	<polygon style="fill:#FFFFFF;" points="542.543,184.559 541.908,191.057 548.881,206.487 551.416,197.555 545.711,187.808 	"/>
	<path style="fill:#FFFFFF;" d="M534.34,192.128c0,0,9.293,8.086,11.949,24.258l0.664-10.292l-7.965-13.966H534.34z"/>
	<polygon style="fill:#FFFFFF;" points="413.248,421.504 406.844,424.997 407.426,427.907 412.082,427.907 414.994,423.833 	"/>
	<polygon style="fill:#FFFFFF;" points="619.92,295.754 617.008,300.411 624.576,300.411 626.904,295.754 	"/>
</g>
</svg>
